<svg width="207" height="53" viewBox="0 0 207 53" fill="none" xmlns="http://www.w3.org/2000/svg" style="" class="">
<path d="M39.4079 14.208L34.8719 15.216C34.1039 12.048 32.5679 9.576 30.2639 7.8C28.0079 6.024 25.0799 5.136 21.4799 5.136C16.0079 5.136 12.0479 6.912 9.59992 10.464C7.15192 13.968 5.92792 19.272 5.92792 26.376C5.92792 32.184 6.59992 36.744 7.94392 40.056C9.38392 43.56 11.8319 45.888 15.2879 47.04C17.1119 47.616 19.1999 47.904 21.5519 47.904C28.4639 47.904 33.0719 44.736 35.3759 38.4L39.5519 39.696C38.2559 43.68 36.0239 46.704 32.8559 48.768C29.6879 50.784 25.8239 51.792 21.2639 51.792C14.3039 51.792 9.14392 49.752 5.78392 45.672C2.47192 41.592 0.815918 35.16 0.815918 26.376C0.815918 9.576 7.75192 1.176 21.6239 1.176C26.1359 1.176 29.9279 2.304 32.9999 4.56C36.1199 6.768 38.2559 9.984 39.4079 14.208Z" stroke="white" class="dsJDFsau_0"></path>
<path d="M52.3662 51H47.5422V2.112H52.3662V51Z" stroke="white" class="dsJDFsau_1"></path>
<path d="M61.8573 51V16.8H66.4653V17.88V19.968V22.344V23.28C67.3773 20.832 69.0573 18.984 71.5053 17.736C73.8093 16.632 76.1133 16.08 78.4173 16.08C81.0093 16.08 83.1213 16.584 84.7533 17.592C86.4333 18.648 87.5853 19.872 88.2093 21.264C88.9293 22.944 89.4093 24.6 89.6493 26.232C89.7453 27.576 89.7933 28.44 89.7933 28.824V31.488V51H85.1133V30.912C85.1133 28.224 84.8253 25.944 84.2493 24.072C83.6253 22.296 82.4733 21.096 80.7933 20.472C79.9773 20.136 78.9453 19.968 77.6973 19.968C74.3853 19.968 71.8413 20.856 70.0653 22.632C68.5293 24.168 67.4733 26.52 66.8973 29.688C66.6573 31.224 66.5373 32.76 66.5373 34.296V51H61.8573Z" stroke="white" class="dsJDFsau_2"></path>
<path d="M118.731 24.576C117.387 21.312 114.531 19.68 110.163 19.68C104.547 19.68 101.739 21.672 101.739 25.656C101.739 27.096 102.291 28.272 103.395 29.184C104.259 30 105.723 30.6 107.787 30.984C108.555 31.224 109.515 31.44 110.667 31.632C114.651 32.352 117.579 33.48 119.451 35.016C121.323 36.504 122.259 38.64 122.259 41.424C122.259 48.336 117.747 51.792 108.723 51.792C105.843 51.792 103.323 51.216 101.163 50.064C98.6665 48.72 96.9865 46.512 96.1225 43.44L99.7225 42.072C100.539 44.232 101.667 45.792 103.107 46.752C104.595 47.712 106.635 48.192 109.227 48.192C115.035 48.192 117.939 46.248 117.939 42.36C117.939 40.248 117.267 38.736 115.923 37.824C114.579 36.96 111.771 36.096 107.499 35.232C105.339 34.752 103.347 34.056 101.523 33.144C99.8425 32.376 98.6185 31.008 97.8505 29.04C97.4665 27.984 97.2745 26.832 97.2745 25.584C97.2745 22.656 98.4265 20.352 100.731 18.672C103.035 16.944 106.083 16.08 109.875 16.08C112.995 16.08 115.491 16.608 117.363 17.664C119.283 18.672 120.819 20.376 121.971 22.776L118.731 24.576Z" stroke="white" class="dsJDFsau_3"></path>
<path d="M129.506 51V16.8H134.186V51H129.506ZM129.434 9.528V3.552H134.114V9.528H129.434Z" stroke="white" class="dsJDFsau_4"></path>
<path d="M160.785 46.896C162.609 45.84 163.905 43.728 164.673 40.56C165.057 38.736 165.249 36.648 165.249 34.296C165.249 28.2 163.857 23.952 161.073 21.552C159.537 20.256 157.641 19.608 155.385 19.608C152.553 19.608 150.345 20.952 148.761 23.64C147.225 26.28 146.457 29.88 146.457 34.44C146.457 38.568 147.273 41.904 148.905 44.448C150.537 46.992 152.721 48.264 155.457 48.264C157.521 48.264 159.297 47.808 160.785 46.896ZM154.665 16.08C159.849 16.08 163.329 18.12 165.105 22.2V1.752H169.857V51H166.041L165.393 45.24C164.529 47.256 163.137 48.864 161.217 50.064C159.345 51.216 157.209 51.792 154.809 51.792C150.777 51.792 147.561 50.208 145.161 47.04C142.809 43.872 141.633 39.624 141.633 34.296C141.633 28.632 142.761 24.192 145.017 20.976C147.321 17.712 150.537 16.08 154.665 16.08Z" stroke="white" class="dsJDFsau_5"></path>
<path d="M201.042 31.056C200.946 23.424 197.898 19.608 191.898 19.608C188.826 19.608 186.522 20.736 184.986 22.992C183.45 25.104 182.538 27.792 182.25 31.056H201.042ZM202.41 20.76C204.522 23.736 205.578 27.552 205.578 32.208C205.578 33.12 205.554 33.768 205.506 34.152H182.178C182.178 38.232 182.946 41.52 184.482 44.016C186.162 46.848 188.73 48.264 192.186 48.264C196.65 48.264 199.53 46.296 200.826 42.36L204.498 43.224C203.97 45.048 203.058 46.632 201.762 47.976C200.514 49.32 199.074 50.28 197.442 50.856C195.954 51.384 194.25 51.696 192.33 51.792H192.186C187.098 51.792 183.306 49.968 180.81 46.32C178.506 43.056 177.354 38.904 177.354 33.864C177.354 28.488 178.65 24.192 181.242 20.976C183.882 17.712 187.482 16.08 192.042 16.08C196.698 16.08 200.154 17.64 202.41 20.76Z" stroke="white" class="dsJDFsau_6"></path>
<style data-made-with="vivus-instant">.dsJDFsau_0{stroke-dasharray:229 231;stroke-dashoffset:230;animation:dsJDFsau_draw_0 9200ms ease-out 0ms infinite,dsJDFsau_fade 9200ms linear 0ms infinite;}.dsJDFsau_1{stroke-dasharray:108 110;stroke-dashoffset:109;animation:dsJDFsau_draw_1 9200ms ease-out 0ms infinite,dsJDFsau_fade 9200ms linear 0ms infinite;}.dsJDFsau_2{stroke-dasharray:184 186;stroke-dashoffset:185;animation:dsJDFsau_draw_2 9200ms ease-out 0ms infinite,dsJDFsau_fade 9200ms linear 0ms infinite;}.dsJDFsau_3{stroke-dasharray:181 183;stroke-dashoffset:182;animation:dsJDFsau_draw_3 9200ms ease-out 0ms infinite,dsJDFsau_fade 9200ms linear 0ms infinite;}.dsJDFsau_4{stroke-dasharray:100 102;stroke-dashoffset:101;animation:dsJDFsau_draw_4 9200ms ease-out 0ms infinite,dsJDFsau_fade 9200ms linear 0ms infinite;}.dsJDFsau_5{stroke-dasharray:238 240;stroke-dashoffset:239;animation:dsJDFsau_draw_5 9200ms ease-out 0ms infinite,dsJDFsau_fade 9200ms linear 0ms infinite;}.dsJDFsau_6{stroke-dasharray:205 207;stroke-dashoffset:206;animation:dsJDFsau_draw_6 9200ms ease-out 0ms infinite,dsJDFsau_fade 9200ms linear 0ms infinite;}@keyframes dsJDFsau_draw{100%{stroke-dashoffset:0;}}@keyframes dsJDFsau_fade{0%{stroke-opacity:1;}95.65217391304348%{stroke-opacity:1;}100%{stroke-opacity:0;}}@keyframes dsJDFsau_draw_0{8.695652173913043%{stroke-dashoffset: 230}63.04347826086957%{ stroke-dashoffset: 0;}100%{ stroke-dashoffset: 0;}}@keyframes dsJDFsau_draw_1{8.695652173913043%{stroke-dashoffset: 109}63.04347826086957%{ stroke-dashoffset: 0;}100%{ stroke-dashoffset: 0;}}@keyframes dsJDFsau_draw_2{8.695652173913043%{stroke-dashoffset: 185}63.04347826086957%{ stroke-dashoffset: 0;}100%{ stroke-dashoffset: 0;}}@keyframes dsJDFsau_draw_3{8.695652173913043%{stroke-dashoffset: 182}63.04347826086957%{ stroke-dashoffset: 0;}100%{ stroke-dashoffset: 0;}}@keyframes dsJDFsau_draw_4{8.695652173913043%{stroke-dashoffset: 101}63.04347826086957%{ stroke-dashoffset: 0;}100%{ stroke-dashoffset: 0;}}@keyframes dsJDFsau_draw_5{8.695652173913043%{stroke-dashoffset: 239}63.04347826086957%{ stroke-dashoffset: 0;}100%{ stroke-dashoffset: 0;}}@keyframes dsJDFsau_draw_6{8.695652173913043%{stroke-dashoffset: 206}63.04347826086957%{ stroke-dashoffset: 0;}100%{ stroke-dashoffset: 0;}}</style></svg>
