<svg width="48" height="47" viewBox="0 0 48 47" fill="none" xmlns="http://www.w3.org/2000/svg">
<path d="M10.1 4.50005C14 1.70005 18.7 0.100046 23.4 4.61238e-05C26.6 -0.0999539 29.8 0.500046 32.8 1.60005C35.3 2.60005 37.7 4.00005 39.7 5.80005C37 5.70005 34.2 6.60005 32 8.20005C29.5 10 27.7 12.9 27.2 16C25.6 15.4 23.9 15.3 22.3 15.8C20.5 16.3 18.8 17.4 17.7 18.9C16.6 20.4 16.1 22.2 16.1 24C16.2 26.4 17.3 28.7 19.2 30.2C21 31.7 23.5 32.3 25.8 31.9C27 31.7 28.2 31.2 29.2 30.4C28.3 33.3 27.3 36.1 26.2 38.8C25.3 40.9 24.3 43.1 23 45C22.5 45.8 21.9 46.6 21.2 47.2C16.5 46.6 11.9 44.6 8.4 41.5C5 38.5 2.4 34.5 1.2 30.1C-0.100002 25.4 0.0999982 20.3 1.7 15.7C3.3 11.2 6.3 7.30005 10.1 4.50005Z" stroke="black" stroke-width="0.5"/>
<path d="M41.3 29.9001C43.7 29.5001 45.9 28.3001 47.6 26.6001C47.1 31.0001 45.3 35.2001 42.5 38.6001C40 41.7001 36.7 44.1001 33 45.6001C30.4 46.7001 27.6 47.2001 24.8 47.3001C25.7 46.5001 26.4 45.5001 27 44.4001C28.2 42.4001 29.1 40.3001 30 38.2001C31.3 35.0001 32.3 31.8001 33.2 28.5001C35.7 29.9001 38.6 30.4001 41.3 29.9001Z" stroke="black" stroke-width="0.5"/>
<path d="M37.7 9.00016C40 8.70016 42.5 9.50016 44.3 11.0002C46 12.4002 47.2 14.5002 47.5 16.8002C47.8 19.3002 47 21.8002 45.4 23.7002C43.8 25.5002 41.4 26.6002 39 26.7002C36.5 26.8002 34 25.7002 32.3 23.9002C30.8 22.3002 29.9 20.0002 29.9 17.8002C29.9 15.6002 30.8 13.4002 32.4 11.7002C33.7 10.2002 35.6 9.20016 37.7 9.00016Z" stroke="black" stroke-width="0.5"/>
</svg>
