<svg xmlns="http://www.w3.org/2000/svg" width="215" height="194" viewBox="0 0 215 194">
  <g id="top-right" transform="translate(-97 -139)">
    <path id="Rectangle_26" data-name="Rectangle 26" d="M0,0H57a69,69,0,0,1,69,69v0a0,0,0,0,1,0,0H69A69,69,0,0,1,0,0V0A0,0,0,0,1,0,0Z" transform="translate(181 264)" fill="#1ff2ff"/>
    <path id="Rectangle_28" data-name="Rectangle 28" d="M0,0H58a67,67,0,0,1,67,67v0a0,0,0,0,1,0,0H67A67,67,0,0,1,0,0V0A0,0,0,0,1,0,0Z" transform="translate(312 139) rotate(90)" fill="#013475"/>
    <path id="Rectangle_27" data-name="Rectangle 27" d="M0,0H32A37,37,0,0,1,69,37v0a0,0,0,0,1,0,0H37A37,37,0,0,1,0,0V0A0,0,0,0,1,0,0Z" transform="translate(238 296)" fill="#171b2c"/>
    <path id="Rectangle_29" data-name="Rectangle 29" d="M0,0H31A37,37,0,0,1,68,37v0a0,0,0,0,1,0,0H37A37,37,0,0,1,0,0V0A0,0,0,0,1,0,0Z" transform="translate(282 196) rotate(90)" fill="#1ff2ff"/>
    <ellipse id="Ellipse_2" data-name="Ellipse 2" cx="32" cy="31" rx="32" ry="31" transform="translate(181 202)" fill="#6179e5"/>
    <path id="Subtraction_3" data-name="Subtraction 3" d="M21,42h0A21,21,0,0,1,6.151,6.151,20.862,20.862,0,0,1,21,0V9a12,12,0,1,0,0,24v9Z" transform="translate(291 243)" fill="#6179e5"/>
    <ellipse id="Ellipse_3" data-name="Ellipse 3" cx="17" cy="17.5" rx="17" ry="17.5" transform="translate(196 216)" fill="#013475"/>
    <circle id="Ellipse_6" data-name="Ellipse 6" cx="9" cy="9" r="9" transform="translate(97 222)" fill="#6179e5"/>
    <path id="Rectangle_30" data-name="Rectangle 30" d="M76,0h1a0,0,0,0,1,0,0V76a0,0,0,0,1,0,0H0a0,0,0,0,1,0,0v0A76,76,0,0,1,76,0Z" transform="translate(181 139) rotate(90)" fill="#1ff2ff"/>
    <path id="Rectangle_32" data-name="Rectangle 32" d="M63,0h0a0,0,0,0,1,0,0V64a0,0,0,0,1,0,0H0a0,0,0,0,1,0,0V63A63,63,0,0,1,63,0Z" transform="translate(181 202) rotate(-90)" fill="#fff"/>
    <path id="Rectangle_31" data-name="Rectangle 31" d="M37,0h0a0,0,0,0,1,0,0V38a0,0,0,0,1,0,0H0a0,0,0,0,1,0,0V37A37,37,0,0,1,37,0Z" transform="translate(143 179) rotate(90)" fill="#5d00ff"/>
  </g>
</svg>
